<svg xmlns="http://www.w3.org/2000/svg" xmlns:xlink="http://www.w3.org/1999/xlink" width="17.813" height="14.19" viewBox="0 0 17.813 14.19">
  <defs>
    <style>
      .cls-1 {
        fill-rule: evenodd;
        filter: url(#filter);
      }
    </style>
    <filter id="filter" x="648.531" y="4113.81" width="17.813" height="14.19" filterUnits="userSpaceOnUse">
      <feFlood result="flood" flood-color="#d22856"/>
      <feComposite result="composite" operator="in" in2="SourceGraphic"/>
      <feBlend result="blend" in2="SourceGraphic"/>
    </filter>
  </defs>
  <path id="twitter" class="cls-1" d="M666.353,4115.48a7.367,7.367,0,0,1-2.1.57,3.636,3.636,0,0,0,1.606-1.99,7.4,7.4,0,0,1-2.32.87,3.706,3.706,0,0,0-2.667-1.13,3.625,3.625,0,0,0-3.654,3.59,3.481,3.481,0,0,0,.1.81,10.435,10.435,0,0,1-7.531-3.74,3.506,3.506,0,0,0-.494,1.8,3.561,3.561,0,0,0,1.625,2.98,3.819,3.819,0,0,1-1.655-.44v0.04a3.589,3.589,0,0,0,2.931,3.51,3.414,3.414,0,0,1-.963.13,3.884,3.884,0,0,1-.687-0.06,3.656,3.656,0,0,0,3.413,2.49,7.428,7.428,0,0,1-4.538,1.53,8.317,8.317,0,0,1-.871-0.05,10.456,10.456,0,0,0,5.6,1.61,10.221,10.221,0,0,0,10.4-10.2c0-.15,0-0.31-0.011-0.46A7.423,7.423,0,0,0,666.353,4115.48Z" transform="translate(-648.531 -4113.81)"/>
</svg>
